<?xml version="1.0" standalone="no"?>
<svg xmlns:xlink="http://www.w3.org/1999/xlink" id="wave" style="transform:rotate(180deg); transition: 0.3s" viewBox="0 0 1440 490" version="1.1" xmlns="http://www.w3.org/2000/svg"><defs><linearGradient id="sw-gradient-0" x1="0" x2="0" y1="1" y2="0"><stop stop-color="rgba(112, 112, 112, 1)" offset="0%"/><stop stop-color="rgba(112, 112, 112, 1)" offset="100%"/></linearGradient></defs><path style="transform:translate(0, 0px); opacity:1" fill="url(#sw-gradient-0)" d="M0,49L240,81.7C480,114,960,180,1440,220.5C1920,261,2400,278,2880,269.5C3360,261,3840,229,4320,179.7C4800,131,5280,65,5760,32.7C6240,0,6720,0,7200,0C7680,0,8160,0,8640,57.2C9120,114,9600,229,10080,253.2C10560,278,11040,212,11520,228.7C12000,245,12480,343,12960,351.2C13440,359,13920,278,14400,253.2C14880,229,15360,261,15840,277.7C16320,294,16800,294,17280,253.2C17760,212,18240,131,18720,106.2C19200,82,19680,114,20160,122.5C20640,131,21120,114,21600,122.5C22080,131,22560,163,23040,163.3C23520,163,24000,131,24480,114.3C24960,98,25440,98,25920,122.5C26400,147,26880,196,27360,228.7C27840,261,28320,278,28800,294C29280,310,29760,327,30240,343C30720,359,31200,376,31680,383.8C32160,392,32640,392,33120,392C33600,392,34080,392,34320,392L34560,392L34560,490L34320,490C34080,490,33600,490,33120,490C32640,490,32160,490,31680,490C31200,490,30720,490,30240,490C29760,490,29280,490,28800,490C28320,490,27840,490,27360,490C26880,490,26400,490,25920,490C25440,490,24960,490,24480,490C24000,490,23520,490,23040,490C22560,490,22080,490,21600,490C21120,490,20640,490,20160,490C19680,490,19200,490,18720,490C18240,490,17760,490,17280,490C16800,490,16320,490,15840,490C15360,490,14880,490,14400,490C13920,490,13440,490,12960,490C12480,490,12000,490,11520,490C11040,490,10560,490,10080,490C9600,490,9120,490,8640,490C8160,490,7680,490,7200,490C6720,490,6240,490,5760,490C5280,490,4800,490,4320,490C3840,490,3360,490,2880,490C2400,490,1920,490,1440,490C960,490,480,490,240,490L0,490Z"/></svg>